<?xml version="1.0" encoding="UTF-8"?>
<svg width="24px" height="24px" viewBox="0 0 24 24" version="1.1" xmlns="http://www.w3.org/2000/svg" xmlns:xlink="http://www.w3.org/1999/xlink">
    <title>A25A0860-8A63-4F50-BC20-4E2257D20B77</title>
    <defs>
        <filter color-interpolation-filters="auto" id="filter-1">
            <feColorMatrix in="SourceGraphic" type="matrix" values="0 0 0 0 1.000000 0 0 0 0 1.000000 0 0 0 0 1.000000 0 0 0 1.000000 0"></feColorMatrix>
        </filter>
    </defs>
    <g id="Aureate-Back-Office" stroke="none" stroke-width="1" fill="none" fill-rule="evenodd">
        <g id="alert-circle" transform="translate(-28.000000, -312.000000)" filter="url(#filter-1)">
            <g transform="translate(28.000000, 312.000000)">
                <rect id="Rectangle" fill="#000000" fill-rule="nonzero" opacity="0" x="0" y="0" width="24" height="24"></rect>
                <g id="bx-id-card" transform="translate(2.000000, 4.000000)" fill="#000000" fill-rule="nonzero">
                    <path d="M7.715,8 C8.866,8 9.715,7.151 9.715,6 C9.715,4.849 8.866,4 7.715,4 C6.564,4 5.715,4.849 5.715,6 C5.715,7.151 6.563,8 7.715,8 Z" id="Path"></path>
                    <path d="M18,0 L2,0 C0.897,0 0,0.841 0,1.875 L0,14.125 C0,15.159 0.897,16 2,16 L18,16 C19.103,16 20,15.159 20,14.125 L20,1.875 C20,0.841 19.103,0 18,0 Z M18,14 L2,13.989 L2,2 L18,2.011 L18,14 Z" id="Shape"></path>
                    <path d="M12,5 L16,5 L16,7 L12,7 L12,5 Z M13,9 L16,9 L16,11 L13,11 L13,9 Z M11.43,11.536 C11.43,10.162 9.754,8.75 7.715,8.75 C5.676,8.75 4,10.162 4,11.536 L4,12 L11.43,12 L11.43,11.536 Z" id="Shape"></path>
                </g>
            </g>
        </g>
    </g>
</svg>