<?xml version="1.0" encoding="UTF-8"?>
<svg width="24px" height="24px" viewBox="0 0 24 24" version="1.1" xmlns="http://www.w3.org/2000/svg" xmlns:xlink="http://www.w3.org/1999/xlink">
    <title>E424651B-4273-4235-931D-CF8D64360F2A</title>
    <defs>
        <filter color-interpolation-filters="auto" id="filter-1">
            <feColorMatrix in="SourceGraphic" type="matrix" values="0 0 0 0 1.000000 0 0 0 0 1.000000 0 0 0 0 1.000000 0 0 0 1.000000 0"></feColorMatrix>
        </filter>
    </defs>
    <g id="Aureate-Back-Office" stroke="none" stroke-width="1" fill="none" fill-rule="evenodd">
        <g id="alert-circle" transform="translate(-28.000000, -248.000000)" filter="url(#filter-1)">
            <g transform="translate(28.000000, 248.000000)">
                <rect id="Rectangle" fill="#000000" fill-rule="nonzero" opacity="0" x="0" y="0" width="24" height="24"></rect>
                <path d="M19.0001893,2 L9.00018926,2 C7.89718926,2 7.00018926,2.897 7.00018926,4 L7.00018926,9.586 L2.29318926,14.293 C2.00718926,14.579 1.92118926,15.009 2.07618926,15.383 C2.23118926,15.757 2.59618926,16 3.00018926,16 L3.00018926,17 L3.00018926,21 C3.00018926,21.553 3.44818926,22 4.00018926,22 L12.0001893,22 L20.0001893,22 C20.5531893,22 21.0001893,21.553 21.0001893,21 L21.0001893,4 C21.0001893,2.897 20.1031893,2 19.0001893,2 Z M11.0001893,20 L5.00018926,20 L5.00018926,17 L5.00018926,15 L5.00018926,14.414 L8.00018926,11.414 L11.0001893,14.414 L11.0001893,15 L11.0001893,18 L11.0001893,20 Z M19.0001893,20 L13.0001893,20 L13.0001893,18 L13.0001893,16 C13.4041893,16 13.7701893,15.757 13.9241893,15.383 C14.0791893,15.009 13.9931893,14.579 13.7071893,14.293 L9.00018926,9.586 L9.00018926,4 L19.0001893,4 L19.0001893,20 Z" id="Shape" fill="#000000" fill-rule="nonzero"></path>
                <path d="M11.0001893,6 L13.0001893,6 L13.0001893,8 L11.0001893,8 L11.0001893,6 Z M15.0001893,6 L17.0001893,6 L17.0001893,8 L15.0001893,8 L15.0001893,6 Z M15.0001893,10.031 L17.0001893,10.031 L17.0001893,12 L15.0001893,12 L15.0001893,10.031 Z M15.0001893,14 L17.0001893,14 L17.0001893,16 L15.0001893,16 L15.0001893,14 Z M7.00018926,15 L9.00018926,15 L9.00018926,17 L7.00018926,17 L7.00018926,15 Z" id="Shape" fill="#000000" fill-rule="nonzero"></path>
            </g>
        </g>
    </g>
</svg>