<?xml version="1.0" encoding="UTF-8"?>
<svg width="24px" height="24px" viewBox="0 0 24 24" version="1.1" xmlns="http://www.w3.org/2000/svg" xmlns:xlink="http://www.w3.org/1999/xlink">
    <title>26EEFBE0-0A12-4467-AC07-60FE8ED12AD5</title>
    <defs>
        <filter color-interpolation-filters="auto" id="filter-1">
            <feColorMatrix in="SourceGraphic" type="matrix" values="0 0 0 0 1.000000 0 0 0 0 1.000000 0 0 0 0 1.000000 0 0 0 1.000000 0"></feColorMatrix>
        </filter>
    </defs>
    <g id="Aureate-Back-Office" stroke="none" stroke-width="1" fill="none" fill-rule="evenodd">
        <g id="alert-circle" transform="translate(-28.000000, -120.000000)" filter="url(#filter-1)">
            <g transform="translate(28.000000, 120.000000)">
                <rect id="Rectangle" fill="#000000" fill-rule="nonzero" opacity="0" x="0" y="0" width="24" height="24"></rect>
                <g id="icon-apps-outline" transform="translate(3.000000, 3.000000)" fill="#000000">
                    <path d="M0,2 C0,0.89543 0.89543,0 2,0 L6,0 C7.1046,0 8,0.89543 8,2 L8,6 C8,7.1046 7.1046,8 6,8 L2,8 C0.89543,8 0,7.1046 0,6 L0,2 Z M6,2 L2,2 L2,6 L6,6 L6,2 Z" id="Shape"></path>
                    <path d="M0,12 C0,10.8954 0.89543,10 2,10 L6,10 C7.1046,10 8,10.8954 8,12 L8,16 C8,17.1046 7.1046,18 6,18 L2,18 C0.89543,18 0,17.1046 0,16 L0,12 Z M6,12 L2,12 L2,16 L6,16 L6,12 Z" id="Shape"></path>
                    <path d="M10,2 C10,0.89543 10.8954,0 12,0 L16,0 C17.1046,0 18,0.89543 18,2 L18,6 C18,7.1046 17.1046,8 16,8 L12,8 C10.8954,8 10,7.1046 10,6 L10,2 Z M16,2 L12,2 L12,6 L16,6 L16,2 Z" id="Shape"></path>
                    <path d="M10,12 C10,10.8954 10.8954,10 12,10 L16,10 C17.1046,10 18,10.8954 18,12 L18,16 C18,17.1046 17.1046,18 16,18 L12,18 C10.8954,18 10,17.1046 10,16 L10,12 Z M16,12 L12,12 L12,16 L16,16 L16,12 Z" id="Shape"></path>
                </g>
            </g>
        </g>
    </g>
</svg>