<?xml version="1.0" encoding="UTF-8"?>
<svg width="24px" height="24px" viewBox="0 0 24 24" version="1.1" xmlns="http://www.w3.org/2000/svg" xmlns:xlink="http://www.w3.org/1999/xlink">
    <title>0B020046-22FB-4730-A732-AD7E32F205A6</title>
    <defs>
        <filter color-interpolation-filters="auto" id="filter-1">
            <feColorMatrix in="SourceGraphic" type="matrix" values="0 0 0 0 1.000000 0 0 0 0 1.000000 0 0 0 0 1.000000 0 0 0 1.000000 0"></feColorMatrix>
        </filter>
    </defs>
    <g id="Aureate-Back-Office" stroke="none" stroke-width="1" fill="none" fill-rule="evenodd">
        <g id="alert-circle" transform="translate(-28.000000, -504.000000)" filter="url(#filter-1)">
            <g transform="translate(28.000000, 504.000000)">
                <rect id="Rectangle" fill="#000000" fill-rule="nonzero" opacity="0" x="0" y="0" width="24" height="24"></rect>
                <path d="M14,12 C14,13.1046 13.1046,14 12,14 C10.8954,14 10,13.1046 10,12 C10,10.8954 10.8954,10 12,10 C13.1046,10 14,10.8954 14,12 Z" id="Path" fill="#000000" fill-rule="nonzero"></path>
                <path d="M12,6 C8.68629,6 6,8.68629 6,12 C6,15.3137 8.68629,18 12,18 C15.3137,18 18,15.3137 18,12 C18,8.68629 15.3137,6 12,6 Z M4,12 C4,7.58172 7.58172,4 12,4 C16.4183,4 20,7.58172 20,12 C20,16.4183 16.4183,20 12,20 C7.58172,20 4,16.4183 4,12 Z" id="Shape" fill="#000000"></path>
                <path d="M4.36058,6.67908 C4.07645,6.2813 4.12155,5.7364 4.46721,5.39074 L5.39051,4.46744 C5.73617,4.12178 6.28107,4.07668 6.67886,4.36081 L8.4644,5.6362 L5.63597,8.46462 L4.36058,6.67908 Z" id="Path" fill="#000000" fill-rule="nonzero"></path>
                <path d="M19.6394,17.321 C19.9235,17.7188 19.8785,18.2637 19.5328,18.6093 L18.6095,19.5326 C18.2638,19.8783 17.7189,19.9234 17.3211,19.6393 L15.5356,18.3639 L18.364,15.5355 L19.6394,17.321 Z" id="Path" fill="#000000" fill-rule="nonzero"></path>
                <path d="M17.3211,4.36065 C17.7189,4.07652 18.2638,4.12162 18.6094,4.46728 L19.5327,5.39058 C19.8784,5.73624 19.9235,6.28114 19.6393,6.67893 L18.364,8.46447 L15.5355,5.63604 L17.3211,4.36065 Z" id="Path" fill="#000000" fill-rule="nonzero"></path>
                <path d="M6.67893,19.6393 C6.28114,19.9235 5.73624,19.8784 5.39058,19.5327 L4.46728,18.6094 C4.12162,18.2638 4.07652,17.7189 4.36065,17.3211 L5.63604,15.5355 L8.46447,18.364 L6.67893,19.6393 Z" id="Path" fill="#000000" fill-rule="nonzero"></path>
                <path d="M21.1644,10.3607 C21.6466,10.4411 22,10.8583 22,11.3471 L22,12.6529 C22,13.1417 21.6466,13.5589 21.1644,13.6393 L19,14 L19,10 L21.1644,10.3607 Z" id="Path" fill="#000000" fill-rule="nonzero"></path>
                <path d="M2.8356,13.6393 C2.35341,13.5589 2,13.1417 2,12.6529 L2,11.3471 C2,10.8583 2.35341,10.4411 2.8356,10.3607 L5,10 L5,14 L2.8356,13.6393 Z" id="Path" fill="#000000" fill-rule="nonzero"></path>
                <path d="M10.3607,2.8356 C10.4411,2.35341 10.8583,2 11.3471,2 L12.6529,2 C13.1417,2 13.5589,2.35341 13.6393,2.8356 L14,5 L10,5 L10.3607,2.8356 Z" id="Path" fill="#000000" fill-rule="nonzero"></path>
                <path d="M13.6393,21.1644 C13.5589,21.6466 13.1417,22 12.6529,22 L11.3471,22 C10.8583,22 10.4411,21.6466 10.3607,21.1644 L10,19 L14,19 L13.6393,21.1644 Z" id="Path" fill="#000000" fill-rule="nonzero"></path>
            </g>
        </g>
    </g>
</svg>