<?xml version="1.0" encoding="UTF-8"?>
<svg width="24px" height="24px" viewBox="0 0 24 24" version="1.1" xmlns="http://www.w3.org/2000/svg" xmlns:xlink="http://www.w3.org/1999/xlink">
    <title>D34F2EC5-993A-47C6-BD17-11AB357745FF</title>
    <defs>
        <filter color-interpolation-filters="auto" id="filter-1">
            <feColorMatrix in="SourceGraphic" type="matrix" values="0 0 0 0 0.968627 0 0 0 0 0.768627 0 0 0 0 0.368627 0 0 0 1.000000 0"></feColorMatrix>
        </filter>
    </defs>
    <g id="Aureate-Back-Office" stroke="none" stroke-width="1" fill="none" fill-rule="evenodd">
        <g id="alert-circle" transform="translate(-28.000000, -184.000000)" filter="url(#filter-1)">
            <g transform="translate(28.000000, 184.000000)">
                <rect id="Rectangle" fill="#000000" fill-rule="nonzero" opacity="0" x="0" y="0" width="24" height="24"></rect>
                <g id="icon-doc-outline" transform="translate(4.000000, 2.000000)" fill="#000000">
                    <path d="M7.2115,2.3343 C7.0602,2.54447 7,2.82669 7,3 L7,4 L5,4 L5,3 C5,2.50664 5.13978,1.78887 5.58847,1.1657 C6.0739,0.49153 6.8741,0 8,0 C9.1259,0 9.9261,0.49153 10.4115,1.1657 C10.8602,1.78887 11,2.50664 11,3 L11,4 L9,4 L9,3 C9,2.82669 8.9398,2.54447 8.7885,2.3343 C8.6739,2.17513 8.4741,2 8,2 C7.5259,2 7.3261,2.17513 7.2115,2.3343 Z" id="Path"></path>
                    <path d="M4,14 C4,13.4477 4.44772,13 5,13 L7,13 C7.5523,13 8,13.4477 8,14 C8,14.5523 7.5523,15 7,15 L5,15 C4.44772,15 4,14.5523 4,14 Z" id="Path"></path>
                    <path d="M4,11 C4,10.4477 4.44772,10 5,10 L11,10 C11.5523,10 12,10.4477 12,11 C12,11.5523 11.5523,12 11,12 L5,12 C4.44772,12 4,11.5523 4,11 Z" id="Path"></path>
                    <path d="M4,8 C4,7.44772 4.44772,7 5,7 L11,7 C11.5523,7 12,7.44772 12,8 C12,8.5523 11.5523,9 11,9 L5,9 C4.44772,9 4,8.5523 4,8 Z" id="Path"></path>
                    <path d="M0,6 C0,4.34315 1.34315,3 3,3 L13,3 C14.6569,3 16,4.34315 16,6 L16,17 C16,18.6569 14.6569,20 13,20 L3,20 C1.34315,20 0,18.6569 0,17 L0,6 Z M3,5 C2.44772,5 2,5.44772 2,6 L2,17 C2,17.5523 2.44772,18 3,18 L13,18 C13.5523,18 14,17.5523 14,17 L14,6 C14,5.44772 13.5523,5 13,5 L3,5 Z" id="Shape"></path>
                </g>
            </g>
        </g>
    </g>
</svg>