<?xml version="1.0" encoding="UTF-8"?>
<svg width="24px" height="24px" viewBox="0 0 24 24" version="1.1" xmlns="http://www.w3.org/2000/svg" xmlns:xlink="http://www.w3.org/1999/xlink">
    <title>A676A285-F482-4DCD-8DAE-B55119770DAA</title>
    <defs>
        <filter color-interpolation-filters="auto" id="filter-1">
            <feColorMatrix in="SourceGraphic" type="matrix" values="0 0 0 0 1.000000 0 0 0 0 1.000000 0 0 0 0 1.000000 0 0 0 1.000000 0"></feColorMatrix>
        </filter>
    </defs>
    <g id="Aureate-Back-Office" stroke="none" stroke-width="1" fill="none" fill-rule="evenodd">
        <g id="bar-chart-copy" transform="translate(-28.000000, -440.000000)" filter="url(#filter-1)">
            <g transform="translate(28.000000, 440.000000)">
                <rect id="Rectangle" fill="#000000" fill-rule="nonzero" opacity="0" transform="translate(12.000000, 12.000000) rotate(90.000000) translate(-12.000000, -12.000000) " x="0" y="0" width="24" height="24"></rect>
                <path d="M12.25,4 C11.5596441,4 11,4.44771525 11,5 L11,20 C11,20.5522847 11.5596441,21 12.25,21 C12.9403559,21 13.5,20.5522847 13.5,20 L13.5,5 C13.5,4.44771525 12.9403559,4 12.25,4 Z" id="Path" fill="#000000" fill-rule="nonzero"></path>
                <path d="M19.25,12 C18.5596441,12 18,12.4477153 18,13 L18,20 C18,20.5522847 18.5596441,21 19.25,21 C19.9403559,21 20.5,20.5522847 20.5,20 L20.5,13 C20.5,12.4477153 19.9403559,12 19.25,12 Z" id="Path" fill="#000000" fill-rule="nonzero"></path>
                <path d="M5.25,8 C4.55964406,8 4,8.44771525 4,9 L4,20 C4,20.5522847 4.55964406,21 5.25,21 C5.94035594,21 6.5,20.5522847 6.5,20 L6.5,9 C6.5,8.44771525 5.94035594,8 5.25,8 Z" id="Path" fill="#000000" fill-rule="nonzero"></path>
            </g>
        </g>
    </g>
</svg>