<?xml version="1.0" encoding="UTF-8"?>
<svg width="52px" height="52px" viewBox="0 0 52 52" version="1.1" xmlns="http://www.w3.org/2000/svg" xmlns:xlink="http://www.w3.org/1999/xlink">
    <title>5A5BE223-8E7D-46D3-B0BC-541BF2CCC20C</title>
    <g id="Aureate-Back-Office" stroke="none" stroke-width="1" fill="none" fill-rule="evenodd">
        <g id="0606_-Create-Inspection_Case-Details_Order-Details" transform="translate(-1070.000000, -393.000000)" fill-rule="nonzero">
            <g id="Group-37-Copy-4" transform="translate(1030.000000, 353.000000)">
                <g id="flash-copy" transform="translate(40.000000, 40.000000)">
                    <rect id="Rectangle" fill="#000000" opacity="0" x="0" y="0" width="52" height="52"></rect>
                    <path d="M26.8791231,4.15489615 C27.532504,3.94268696 28.254792,3.94263891 28.9444607,4.19320884 C29.5985158,4.43603012 30.1344074,4.87877014 30.4958804,5.43488233 C30.8625432,5.99897895 31.0497428,6.6797266 30.9987661,7.38679714 L30.9987661,7.38679714 L29.6275484,20.1017241 L39.8548551,20.1017253 C40.4404518,20.1008422 41.002335,20.2617582 41.4865837,20.5521397 C41.9708324,20.8425212 42.3774467,21.2623681 42.6525058,21.7793466 C42.9275649,22.2963251 43.0485627,22.8681347 43.0188119,23.4319903 C42.9890611,23.9958459 42.8085617,24.5517475 42.4839853,25.031914 L42.4839853,25.031914 L26.9879822,48.2071513 C26.3987017,49.0789655 25.4145028,49.6007105 24.3640188,49.5991301 C23.9967341,49.5991301 23.6322649,49.5346311 23.2838126,49.4081539 C22.5993576,49.1575429 22.0448347,48.6892987 21.6816461,48.1026095 C21.3184576,47.5159203 21.1466033,46.810786 21.2270895,46.0899915 L21.2270895,46.0899915 L22.5946507,33.4977717 L12.3683549,33.4977705 C11.7827582,33.4986537 11.220875,33.3377376 10.7366263,33.0473562 C10.2523776,32.7569747 9.84576328,32.3371278 9.5707042,31.8201493 C9.29564512,31.3031707 9.17464735,30.7313612 9.20439814,30.1675056 C9.23414893,29.60365 9.41464829,29.0477484 9.73922467,28.5675819 L9.73922467,28.5675819 L25.2351499,5.39245974 C25.6412684,4.79147564 26.2257422,4.36710533 26.8791231,4.15489615 Z" id="Path" stroke="#FFFFFF" stroke-width="2.4" fill="#FF5B5B"></path>
                </g>
            </g>
        </g>
    </g>
</svg>