<?xml version="1.0" encoding="UTF-8"?>
<svg width="53px" height="52px" viewBox="0 0 53 52" version="1.1" xmlns="http://www.w3.org/2000/svg" xmlns:xlink="http://www.w3.org/1999/xlink">
    <title>8A411DC6-E9D0-4695-8359-6083D39081A6</title>
    <g id="Aureate-Back-Office" stroke="none" stroke-width="1" fill="none" fill-rule="evenodd">
        <g id="0606_-Create-Inspection_Case-Details_Order-Details" transform="translate(-794.000000, -393.000000)" fill-rule="nonzero">
            <g id="Group-37-Copy-3" transform="translate(755.000000, 353.000000)">
                <g id="flash" transform="translate(40.000000, 40.000000)">
                    <rect id="Rectangle" fill="#000000" opacity="0" x="0" y="0" width="52" height="52"></rect>
                    <path d="M33.7230574,4.08582856 C34.4383979,3.85349573 35.2291799,3.85344312 35.9854787,4.12822588 C36.7015574,4.39407373 37.2882672,4.87879847 37.6840184,5.48764637 C38.086383,6.10666883 38.2913532,6.8539976 38.2341996,7.6300488 L38.2341996,7.6300488 L36.8982458,20.0179848 L46.7910076,20.0179862 C47.432136,20.0170193 48.0473021,20.1931949 48.5774718,20.5111131 C49.1076415,20.8290312 49.5528147,21.2886919 49.8539574,21.8546951 C50.1551002,22.4206983 50.2875721,23.0467322 50.255,23.6640578 C50.222428,24.2813834 50.024812,24.8900007 49.6699775,25.4149258 L49.6699775,25.4149258 L34.1731352,48.5914115 C33.5279738,49.545899 32.4504442,50.1171207 31.3006237,50.1153906 C30.8984394,50.1153906 30.4993293,50.0448008 30.1172702,49.9061246 C29.3679089,49.6317484 28.760801,49.119101 28.3631715,48.4767764 C27.965542,47.8344519 27.7773909,47.0624502 27.8654481,46.2738614 L27.8654481,46.2738614 L29.1969105,34.0140322 L19.3054122,34.0140307 C18.6642838,34.0149977 18.0491177,33.8388221 17.518948,33.5209039 C16.9887784,33.2029857 16.5436051,32.7433251 16.2424624,32.1773218 C15.9413196,31.6113186 15.8088477,30.9852848 15.8414198,30.3679592 C15.8739918,29.7506336 16.0716078,29.1420162 16.4264423,28.6170911 L16.4264423,28.6170911 L31.9231874,5.44074941 C32.3678177,4.78277443 33.0077168,4.31816138 33.7230574,4.08582856 Z" id="Path" stroke="#FFFFFF" stroke-width="3" fill="#FF5B5B"></path>
                    <path d="M18.642518,4.37115669 C19.2958989,4.15894751 20.0181869,4.15889946 20.7078556,4.40946939 C21.3619107,4.65229067 21.8978024,5.09503069 22.2592753,5.65114288 C22.6259381,6.21523949 22.8131377,6.89598714 22.762161,7.60305769 L22.762161,7.60305769 L21.3909434,20.3179847 L31.61825,20.3179859 C32.2038467,20.3171027 32.7657299,20.4780188 33.2499786,20.7684003 C33.7342273,21.0587817 34.1408416,21.4786287 34.4159007,21.9956072 C34.6909598,22.5125857 34.8119576,23.0843952 34.7822068,23.6482508 C34.752456,24.2121064 34.5719566,24.768008 34.2473802,25.2481745 L34.2473802,25.2481745 L18.7513772,48.4234118 C18.1620966,49.2952261 17.1778977,49.816971 16.1274137,49.8153906 C15.760129,49.8153906 15.3956599,49.7508916 15.0472075,49.6244144 C14.3627525,49.3738035 13.8082296,48.9055593 13.4450411,48.3188701 C13.0818525,47.7321808 12.9099982,47.0270465 12.9904844,46.306252 L12.9904844,46.306252 L14.3580456,33.7140323 L4.13174978,33.7140311 C3.54615308,33.7149143 2.98426995,33.5539982 2.50002123,33.2636167 C2.01577251,32.9732352 1.60915819,32.5533883 1.33409911,32.0364098 C1.05904004,31.5194313 0.93804226,30.9476217 0.967793051,30.3837662 C0.997543841,29.8199106 1.1780432,29.2640089 1.50261959,28.7838424 L1.50261959,28.7838424 L16.9985449,5.60872029 C17.4046633,5.00773619 17.9891371,4.58336588 18.642518,4.37115669 Z" id="Path" stroke="#FFFFFF" stroke-width="2.4" fill="#FF5B5B"></path>
                </g>
            </g>
        </g>
    </g>
</svg>