<?xml version="1.0" encoding="UTF-8"?>
<svg width="38px" height="50px" viewBox="0 0 38 50" version="1.1" xmlns="http://www.w3.org/2000/svg" xmlns:xlink="http://www.w3.org/1999/xlink">
    <title>Group 42</title>
    <defs>
        <polygon id="path-1" points="0 0 16.4599506 0 16.4599506 21.5354466 0 21.5354466"></polygon>
    </defs>
    <g id="Aureate-Back-Office" stroke="none" stroke-width="1" fill="none" fill-rule="evenodd">
        <g id="0801_-Inspector-List_Grid-View_New-Apps" transform="translate(-21.000000, -18.000000)">
            <g id="Group-42" transform="translate(21.000000, 18.000000)">
                <text id="IMS" font-family="Inter-ExtraBold, Inter" font-size="20" font-weight="700" fill="#FFFFFF">
                    <tspan x="0.303267045" y="45">IMS</tspan>
                </text>
                <g id="Group-12">
                    <g id="Group-3" transform="translate(18.510697, 0.000000)">
                        <mask id="mask-2" fill="white">
                            <use xlink:href="#path-1"></use>
                        </mask>
                        <g id="Clip-2"></g>
                        <path d="M16.4599506,7.36181573 C16.1694777,7.39100649 16.049762,7.25509432 15.9093977,7.16401915 C13.811125,5.80256221 11.6752671,5.86421309 9.50948029,6.99097634 C6.98315438,8.30526102 5.4210502,10.5127829 4.10185752,12.9311788 C2.71422273,15.4745112 1.59641225,18.1462828 0.469321494,20.8126834 C0.373502539,21.0392037 0.260283048,21.2584847 0.129199005,21.5354466 C-0.0684710909,21.2582512 0.00762725595,21.0121147 0.0533326655,20.7809239 C0.506210632,18.4867638 0.947720248,16.1898015 1.42635101,13.900779 C2.15949362,10.3957863 3.05573726,6.94263645 4.86516106,3.80731552 C5.57301489,2.58083664 6.32866219,1.38868609 7.52489109,0.570177236 C8.73457639,-0.257672658 9.87883568,-0.175938536 11.0189188,0.76213566 C12.0249019,1.58998555 12.873816,2.56402276 13.6874651,3.5723883 C14.655399,4.77247874 15.5936359,5.99522121 16.4599506,7.36181573" id="Fill-1" fill="#F7C45E" mask="url(#mask-2)"></path>
                    </g>
                    <path d="M0.155282389,7.26978311 C0.82879916,6.34875631 1.44153006,5.49311682 2.07282153,4.65172241 C3.15304684,3.21156718 4.31772276,1.85384665 5.69654128,0.681545815 C6.90529856,-0.346202389 8.43004958,-0.1017006 9.50099461,0.88354586 C10.9556795,2.22188373 11.8681636,3.91821705 12.6897009,5.6757342 C14.0174779,8.5151776 14.6921547,11.546813 15.2835409,14.6050703 C15.6204153,16.3471747 16.0352441,18.074567 16.3477578,19.8206414 C16.4558731,20.4240727 16.7282495,21.0244682 16.6015736,21.8086487 C15.6552164,19.6777234 14.7810134,17.6743033 13.8775776,15.6846613 C12.9258842,13.5887648 11.8765159,11.5456453 10.4079106,9.75566805 C8.95995392,7.99067806 7.20806789,6.68503385 4.93022165,6.22825687 C3.47948091,5.93728339 2.14822385,6.32610429 0.881928798,7.03041889 C0.705371353,7.12873337 0.56616706,7.32863168 0.155282389,7.26978311" id="Fill-4" fill="#F7C45E"></path>
                    <path d="M34.9699513,21.9584324 C34.3887733,21.6578843 33.9695364,21.171216 33.4892816,20.772587 C31.8404067,19.4045913 30.1386343,18.1215991 28.1951103,17.1975365 C27.2332087,16.7402925 26.2696829,16.7253468 25.3084773,17.192866 C24.0714152,17.7944291 22.9851577,18.6176085 21.9511018,19.5171509 C21.1641335,20.2018493 20.4138224,20.9250795 19.6853199,21.6718959 C19.5816127,21.7781502 19.4864898,21.9105595 19.2593548,21.9357803 C19.5630521,20.8610934 19.981129,19.8576319 20.3934057,18.8546375 C21.2889533,16.6760728 22.2575832,14.5341718 23.6011367,12.5851632 C23.8883615,12.1683192 24.2259319,11.8026174 24.5609503,11.4285086 C25.8601903,9.97691064 27.1872712,10.333972 28.3542672,11.341637 C29.580193,12.4002106 30.4731886,13.7257045 31.363168,15.0600725 C32.724586,17.1010902 33.8034193,19.2969358 34.8991891,21.4843745 C34.962063,21.6097779 35.0455856,21.7571329 34.9699513,21.9584324" id="Fill-6" fill="#F7C45E"></path>
                    <path d="M15.5045742,21.9299422 C15.0962416,21.471297 14.7087896,20.9916345 14.2756323,20.5582101 C13.2374002,19.5194862 12.0898928,18.6185426 10.8832236,17.7773817 C9.18817936,16.5957398 7.57340956,16.6520196 5.8431002,17.7250719 C3.98704296,18.8758883 2.27854227,20.2076875 0.622939211,21.6205201 C0.520856063,21.7076254 0.414364779,21.7907606 0.303233352,21.8661896 C0.243607513,21.9065896 0.169829237,21.9264393 0,22 C0.577697816,20.7102356 1.17558025,19.5412041 1.79550337,18.3829148 C2.8891851,16.3386277 4.07775776,14.3557579 5.55541133,12.5634453 C6.16095,11.8290058 6.84745917,11.1842404 7.68570102,10.7178888 C8.72787716,10.1378101 9.96377928,10.5649293 10.9674422,11.8595978 C12.3963743,13.7030525 13.425094,15.7725605 14.3213377,17.9130604 C14.7827999,19.0155369 15.1992527,20.1366955 15.6442425,21.2461779 C15.7191808,21.4329987 15.760014,21.6076762 15.6969081,21.7954312 L15.5045742,21.9299422 Z" id="Fill-8" fill="#F7C45E"></path>
                    <path d="M19.6711907,7.90525423 C19.7732738,10.2211322 19.3886059,12.4896044 19.0231947,14.7615794 C18.676576,16.9163244 18.2359944,19.0523873 17.7993569,21.1893843 C17.7801003,21.2839624 17.7531875,21.3771393 17.7230266,21.4686815 C17.6877615,21.57587 17.672217,21.7239255 17.5262845,21.7180347 C17.3745518,21.7115486 17.3887043,21.5639601 17.3678236,21.4523347 C16.9140176,19.022496 16.4098661,16.6010642 16.017774,14.161651 C15.6312501,11.7570331 15.2925196,9.336769 15.4201236,6.88871528 C15.5094463,5.17463397 15.5345031,3.44373879 16.1947954,1.81442745 C16.2017557,1.79667947 16.2033797,1.77659623 16.2101079,1.75861472 C16.505221,0.97700299 17.0761906,0.442928884 17.6223355,0.486131206 C18.4009515,0.54754856 18.7341138,1.12926198 18.9522005,1.76865634 C19.5011294,3.37811797 19.6359256,5.05413453 19.6700306,6.74159386 C19.6779189,7.12924712 19.6711907,7.51736744 19.6711907,7.90525423" id="Fill-10" fill="#F7C45E"></path>
                </g>
            </g>
        </g>
    </g>
</svg>