<?xml version="1.0" encoding="UTF-8"?>
<svg width="174px" height="83px" viewBox="0 0 174 83" version="1.1" xmlns="http://www.w3.org/2000/svg" xmlns:xlink="http://www.w3.org/1999/xlink">
    <title>2974B109-C225-47E0-AF92-2A3338819463</title>
    <defs>
        <polygon id="path-1" points="0 0 24.4137834 0 24.4137834 27.3075307 0 27.3075307"></polygon>
        <polygon id="path-3" points="7.9789376e-15 0 21.5300725 0 21.5300725 27.1446827 7.9789376e-15 27.1446827"></polygon>
        <polygon id="path-5" points="0 0 33.5552258 0 33.5552258 35.9615992 0 35.9615992"></polygon>
    </defs>
    <g id="Aureate-Back-Office" stroke="none" stroke-width="1" fill="none" fill-rule="evenodd">
        <g id="0200_-Inspector-Signup_Blank" transform="translate(-1040.000000, -122.000000)">
            <g id="Group-36" transform="translate(1040.000000, 122.000000)">
                <g id="Group-3" transform="translate(149.586217, 55.462159)">
                    <mask id="mask-2" fill="white">
                        <use xlink:href="#path-1"></use>
                    </mask>
                    <g id="Clip-2"></g>
                    <path d="M12.2975886,10.9989882 C14.1521168,10.9989882 16.0088909,10.9355943 17.8594888,11.0208675 C19.1531107,11.0808953 19.4467583,10.6410651 19.1834299,9.4180676 C18.5124759,6.31064425 15.9280395,3.9740459 12.8023482,3.78218116 C9.58738344,3.58414533 6.50717099,5.66604605 5.49652891,8.66519485 C4.91877853,10.3796353 5.19951244,11.2441487 7.29434887,11.0337707 C8.94618719,10.8665903 10.6283448,10.9995492 12.2975886,10.9989882 M11.6052988,27.2749525 C8.19101298,27.0449392 4.8547712,25.5750982 2.71726321,22.9018951 C0.617373567,20.2769386 -0.0794079965,16.8486187 0.00705804759,13.5538186 C0.210870866,5.78554075 3.8985915,0.970970032 10.6479962,0.113188789 C14.4204984,-0.366473057 18.3036099,0.661293612 20.9183655,3.52299546 C22.2361305,4.96534704 23.1350404,6.74430344 23.6639431,8.61638716 C23.9946477,9.78777188 25.1535173,13.998137 23.6965083,14.7078121 C23.4494624,14.8284288 23.1642368,14.8312339 22.8891175,14.8312339 C17.3221641,14.839088 11.6777281,14.5653161 6.12031966,14.8317949 C5.79186099,14.8475031 5.43027571,14.8828466 5.20231978,15.119592 C4.96032715,15.3703626 4.95190513,15.7597021 4.97885558,16.1064051 C5.15347208,18.3369729 6.25619487,20.4974147 8.01920382,21.8758114 C9.78221277,23.2547691 12.1903482,23.8034349 14.3559296,23.2362558 C15.7034524,22.8839428 16.9313825,22.0929215 17.8269237,21.0286893 C18.6281383,20.0760977 18.9448061,18.1883058 20.4152903,18.0542249 C20.848182,18.0149543 21.2799508,18.1170578 21.6965599,18.2387965 C22.2956461,18.414953 22.8818185,18.6331851 23.448901,18.8929318 C23.6094807,18.9664239 23.7773596,19.0511361 23.8716862,19.1998032 C24.0361963,19.4606719 23.9160422,19.8012038 23.7857816,20.0800248 C21.5146443,24.9417202 16.9981972,27.6384857 11.6052988,27.2749525" id="Fill-1" fill="#2B3769" mask="url(#mask-2)"></path>
                </g>
                <path d="M125.652175,69.2596236 C122.290105,70.478694 118.897155,70.5331118 115.686121,71.4397007 C113.782183,71.9777074 112.615453,73.2057539 112.715395,75.2551162 C112.813651,77.2685739 114.028106,78.3636615 115.959556,78.8724958 C121.900447,80.4388301 126.287195,76.2340751 125.652175,69.2596236 M115.874774,82.6323715 C111.927094,82.4046022 108.179296,80.5269084 107.846907,76.0472595 C107.341025,69.2287681 113.658099,67.5496712 119.155992,66.8618754 C120.512498,66.6918899 121.851037,66.5308806 123.210912,66.3878236 C124.102523,66.2941353 125.057019,65.9889469 125.537635,65.2321471 C125.786365,64.8405635 125.879569,64.3670727 125.890237,63.9036801 C125.919995,62.6245819 125.325962,61.3460446 124.330479,60.5415591 C123.413602,59.8021506 122.230028,59.480132 121.064982,59.3056585 C119.719706,59.1036956 118.304807,59.0818163 117.042066,59.5884065 C115.629974,60.1544636 114.542972,61.3280924 113.716492,62.6049466 C113.305497,63.2388856 112.873167,63.964269 112.142136,64.1566947 C111.768198,64.2548711 108.630155,63.2545939 108.562217,63.6461775 C109.208467,59.9283774 111.852419,57.1631689 115.436829,56.0877166 C118.188021,55.2624738 121.330557,55.2232032 124.133404,55.8083346 C128.516783,56.7222166 130.337624,58.8355338 130.418475,63.2787172 C130.474622,66.3895066 130.56951,69.5042231 130.578493,72.6138905 C130.587477,75.7420711 130.560526,78.8943751 131.647528,81.8778157 C130.775568,82.0012374 129.896871,82.0780955 129.01649,82.1061459 C128.518468,82.1224152 127.997426,82.1184881 127.553866,81.8907189 C126.547154,81.3729085 126.334358,79.9872187 126.256314,78.9717942 C125.873954,80.3821683 123.212597,81.198996 121.987474,81.689878 C120.237379,82.391138 118.026319,82.7569152 115.874774,82.6323715" id="Fill-4" fill="#293568"></path>
                <g id="Group-8" transform="translate(36.458975, 55.855317)">
                    <mask id="mask-4" fill="white">
                        <use xlink:href="#path-3"></use>
                    </mask>
                    <g id="Clip-7"></g>
                    <path d="M8.27872501,27.1226912 C6.54378945,26.9975864 4.84478783,26.3485002 3.48715864,25.2607056 C0.178990254,22.6088208 -0.173611536,18.1460021 0.056028802,14.215019 C0.27780859,10.428776 0.172252641,6.61728755 0.0644508193,2.82150737 C0.0116728443,0.970180947 0.214924195,0.0187113671 2.53996243,0.000759110819 C5.06151441,-0.0188761694 4.87173828,1.30734676 4.85826306,2.95053921 C4.81952178,7.49077702 4.81896031,12.0315758 4.85264838,16.5706916 C4.88409058,20.8214493 6.44328671,22.7378526 9.85420371,22.8422001 C13.565506,22.9560848 16.3981111,20.658757 16.6086616,16.9207606 C16.8736744,12.2094154 16.8422322,7.47955686 16.8596377,2.75755246 C16.8652524,1.15194754 16.7714872,0.017589351 19.1060704,0 C21.5630536,-0.0177541534 21.5001692,1.18616903 21.4872554,2.90341454 C21.4372848,9.76005441 21.4872554,16.6166943 21.4479527,23.4727731 C21.4412151,24.6935266 22.1256444,26.3030585 19.6563089,26.2918384 C17.586177,26.2823012 16.6878285,25.7100731 17.2133624,23.2147094 C15.6300232,25.2629497 12.5481263,26.7311076 9.997378,27.0716395 C9.42804963,27.1479366 8.85142218,27.1636448 8.27872501,27.1226912" id="Fill-6" fill="#343F70" mask="url(#mask-4)"></path>
                </g>
                <path d="M49.262625,16.7226262 C49.7084304,14.2440928 53.3748153,10.7108644 55.0109325,8.67721038 C57.1344038,6.0371067 59.4493356,3.536133 62.1505573,1.47442858 C65.0544688,-0.740992046 68.2144097,-0.409436313 71.0341011,2.13024694 C75.0048015,5.70723399 77.3562287,10.3265739 79.4201844,15.1198263 C83.6373692,24.9116601 85.0258791,35.4238281 87.2217798,45.7273012 C87.5047596,47.0546461 88.0218714,48.4380919 87.6350201,49.7817061 C86.4772735,49.0933492 86.0904221,47.1690918 85.5154791,45.9275811 C81.7036741,37.6970326 78.4735497,29.1551247 72.3367064,22.1924543 C69.5754077,19.0592246 65.9545017,16.4740997 61.9164252,15.2965439 C57.2102019,13.9243183 53.754929,16.4325851 49.262625,16.7226262" id="Fill-9" fill="#F8C452"></path>
                <path d="M131.124015,16.5231879 C131.07236,16.5686295 131.010599,16.6084611 130.937608,16.6432436 C130.340206,16.9271136 126.592409,15.3091665 125.680585,15.1750856 C118.599914,14.1360988 112.356953,17.5408564 107.984242,22.9523396 C102.724973,29.4611545 99.5442579,37.0706671 96.149062,44.5752713 C95.5056198,45.9968655 95.0266878,47.8201416 94.2046989,49.1256072 C93.9941485,49.458846 93.6948861,49.672029 93.3097192,49.6950303 C92.5932863,47.1654452 94.5230512,42.2930907 95.0547612,39.6479379 C97.1507206,29.2199211 99.0821698,18.7481456 104.472822,9.32208909 C106.103325,6.4716074 108.006139,3.87862839 110.514216,1.75857913 C113.018924,-0.358104081 116.281614,-0.639169092 118.718384,1.33333506 C121.338754,3.45506735 123.701972,5.8758169 125.857447,8.46430784 C127.388008,10.3021701 129.151579,11.981828 130.414881,14.0295073 C130.859564,14.7498416 131.740507,15.9823761 131.124015,16.5231879" id="Fill-11" fill="#F8C452"></path>
                <g id="Group-15" transform="translate(0.000000, 46.204801)">
                    <mask id="mask-6" fill="white">
                        <use xlink:href="#path-5"></use>
                    </mask>
                    <g id="Clip-14"></g>
                    <path d="M16.210362,4.6346859 C14.7544759,10.1493946 12.8443624,14.7266589 11.0661938,19.3471209 C10.4025389,21.0722205 11.0600177,21.177129 12.4541423,21.1473956 C15.0503695,21.0901728 17.6527728,21.0480972 20.2456312,21.1608598 C21.8817484,21.2321078 22.3932456,20.897186 21.7307136,19.215845 C19.9098734,14.5970661 18.2058186,9.93228452 16.210362,4.6346859 M-0.000336880692,35.5787656 C1.49429045,29.8542399 4.30331395,24.2666001 6.43296139,18.7468423 C7.96913734,15.6770065 8.96405832,12.1858537 10.2004105,8.98137594 C10.845537,7.31013309 11.490102,5.63832923 12.1352286,3.96652537 C12.685467,2.53932099 12.8926486,0.945497246 14.4546521,0.356999846 C17.2333564,-0.690963112 19.1715433,0.664993242 20.3607321,3.16091787 C21.819987,6.22402159 22.7761667,9.61419298 24.0383463,12.7765951 C27.0916083,20.4265003 30.264463,28.0292808 33.5552258,35.5810096 C32.5103342,35.8009247 31.4491601,36.0214009 30.3834941,35.9467868 C27.7389807,35.7610932 27.2465734,33.7835399 26.4212157,31.6511485 C25.6694103,29.7078168 24.9872269,26.8421879 22.9732419,25.7869318 C21.7329595,25.1372845 20.214189,25.2853907 18.8661048,25.239949 C16.7308427,25.16814 14.596142,25.096331 12.4608799,25.0245219 C11.4328323,24.9891784 10.3441462,24.9689821 9.45028945,25.4783774 C8.00057954,26.3058642 7.60081445,28.1633617 7.19543469,29.7818698 C6.85967693,31.122118 6.42453937,32.4371207 5.89339081,33.7117309 C5.65476699,34.2856421 5.3824551,34.8707735 4.90857626,35.2730162 C3.79406264,36.2188757 1.24556021,36.0084977 -0.000336880692,35.5787656" id="Fill-13" fill="#293568" mask="url(#mask-6)"></path>
                </g>
                <path d="M131.456517,50.9901173 C131.175783,51.1141001 130.667654,50.9811412 129.871493,50.4661358 C128.287592,49.4422962 127.019236,47.9988226 125.524609,46.8599764 C122.93905,44.8891552 120.228845,43.118614 117.36199,41.5634998 C114.004974,39.7424678 110.82089,39.9354545 107.601995,41.8793473 C105.242707,43.3037466 103.273639,45.2420293 101.287166,47.1281382 C100.377027,47.9920905 95.3827707,53.3340088 95.2817065,50.1098958 C95.2654239,49.5797432 95.4271266,49.0613718 95.5983743,48.5592696 C97.9211667,41.7486324 101.741955,34.3287405 106.223591,28.6973421 C109.855165,24.134103 113.05497,23.6881016 117.178951,27.709407 C120.624679,31.069845 123.467952,34.9823148 125.920444,39.1102118 C127.72837,42.1536802 129.349889,45.3194484 131.050014,48.4240667 C131.713669,49.634722 131.979243,50.758421 131.456517,50.9901173" id="Fill-16" fill="#F8C553"></path>
                <path d="M85.6009345,51.2769607 C85.6054262,51.2085177 80.9031332,47.4806195 80.4629425,47.1002561 C78.3551923,45.2786631 76.1727669,43.5361722 73.7943892,42.0764294 C70.4087382,39.9984557 67.1533478,39.6943894 63.5414254,41.6433312 C59.0861782,44.0478115 55.1368136,47.1047442 51.2245058,50.245828 C50.4839298,50.8404965 49.9000032,51.7616716 48.9303483,51.6404939 C48.9483153,48.4814578 52.345757,44.077545 53.8667734,41.4071468 C55.9228685,37.7970603 58.1850224,34.2991754 60.7520532,31.0290597 C61.8351247,29.64898 63.0793373,28.3637107 64.4015941,27.2069122 C68.0107092,24.0478761 70.4682538,24.1353933 73.7814754,27.6214971 C78.6230124,32.7154498 81.0777497,39.179384 83.8087292,45.4615517 C84.5178631,47.092963 85.7115436,49.543446 85.6009345,51.2769607" id="Fill-18" fill="#F8C452"></path>
                <path d="M90.3410704,52.5767602 C88.4017606,42.2093322 86.1412911,32.6334865 85.5820692,22.8091143 C85.3136876,18.0983301 85.2064472,13.3482753 86.1362379,8.66778545 C86.4057425,7.31126809 86.7420617,5.95755576 87.1783222,4.64591904 C87.7459661,2.93821067 88.464645,1.23667338 90.6998483,1.28267604 C92.965371,1.32867869 93.540314,3.14578363 94.0478809,4.8321737 C96.0624275,11.5227552 96.0220018,18.4214707 95.425723,25.242767 C94.6845854,33.7246471 92.9266297,42.0814224 91.1085969,50.4056592 C90.9957419,50.9245916 90.7565566,51.4165956 90.3410704,52.5767602" id="Fill-20" fill="#F8C553"></path>
                <path d="M92.018624,66.4633353 C93.779387,66.4633353 95.5496951,66.3460846 97.2975444,66.4953127 C99.2037276,66.658005 99.223379,65.7205607 98.8651625,64.3500181 C98.1403076,61.5752725 95.541273,59.436149 92.6334312,59.2493333 C89.4459784,59.0434434 86.7206136,60.8650364 85.448889,63.8625021 C84.6005111,65.8630567 84.8964047,66.7516934 87.2961181,66.4953127 C88.8536299,66.3286933 90.4431453,66.4633353 92.018624,66.4633353 M94.3279411,70.2916539 C91.5576589,70.2938979 88.7873767,70.296142 86.0170944,70.297825 C85.7279385,70.298386 85.4202541,70.3039961 85.178823,70.4633224 C84.7425625,70.7522415 84.7313331,71.3816925 84.8110616,71.8983808 C85.1973514,74.4212339 86.6740118,76.812811 88.9019161,78.0604928 C91.1298204,79.3081746 94.0898787,79.2694651 96.1431665,77.7519384 C97.4547554,76.7830776 98.2267736,74.9379222 99.6208982,74.1642922 C100.540021,73.6537749 102.744344,73.4304937 103.501202,74.3353996 C104.809422,75.900051 101.297441,79.1151879 100.237951,79.9780182 C98.3587186,81.507887 96.0499629,82.5266775 93.6356513,82.7976444 C88.5566134,83.3687506 83.5612342,80.7645514 81.2760602,76.181677 C79.7292163,73.0798637 79.4540971,69.4428488 80.0818181,66.0341641 C80.5366071,63.5662899 81.4770657,61.1376863 83.127781,59.2454062 C84.6594653,57.4883292 86.7660925,56.2574776 89.0304922,55.6992746 C92.5828991,54.8229801 96.5199115,55.6504669 99.4086634,57.89506 C102.652824,60.416791 104.412465,64.6591335 104.111518,68.7365397 C104.074461,69.2369589 103.970589,69.7974059 103.554542,70.0795929 C103.260333,70.2787507 102.88078,70.2854828 102.525371,70.2860438 C99.7927074,70.2877269 97.060605,70.2899709 94.3279411,70.2916539" id="Fill-22" fill="#2B3669"></path>
                <path d="M142.262302,47.7750365 C142.316764,47.8272103 142.367858,47.8894822 142.414459,47.9612912 C142.625571,48.2872368 142.624448,48.7018218 142.615465,49.0900393 C142.575039,50.9077052 142.401546,52.7567876 142.604236,54.5677215 C142.646346,54.9385478 142.710914,55.3306924 142.957399,55.6106354 C143.331898,56.0353184 143.982078,56.0549537 144.544107,55.9842667 C145.106136,55.9135797 145.705222,55.7912799 146.217281,56.0325134 C147.02411,56.4128768 147.202657,57.4939392 147.061729,58.3735998 C146.999406,58.7618173 146.884305,59.1651821 146.59571,59.4327829 C145.734419,60.2322193 144.193751,59.2397962 143.197146,59.8625151 C141.759226,60.7612499 142.569986,65.0939147 142.576162,66.4796045 C142.588514,69.3379403 142.564933,72.1962761 142.548089,75.0540509 C142.536298,77.021506 143.144368,78.4015857 145.42112,78.1345459 C147.070712,77.9404371 147.611406,79.5292118 147.515956,80.9631482 C147.495743,81.2711416 147.434543,81.5886722 147.24982,81.8360767 C146.973017,82.208025 146.483978,82.3443499 146.027505,82.4251351 C144.134235,82.7606179 141.610999,82.7202253 140.040012,81.4658114 C138.19559,79.9926044 138.040625,77.2958389 138.039502,74.9362392 C138.037818,70.4532242 138.035572,65.9713312 138.033326,61.4894383 C138.032765,60.7797631 137.901943,59.8855164 137.219759,59.6902856 C136.7762,59.5623758 136.306251,59.8187564 135.848093,59.7665827 C135.297293,59.7043108 134.881246,59.1977206 134.745932,58.6613969 C134.610618,58.1245122 134.696523,57.5595772 134.782989,57.0125944 C134.834082,56.6905758 134.904266,56.3354577 135.16591,56.14191 C135.588134,55.8288675 136.179921,56.1318118 136.704893,56.1003954 C137.761576,56.0375625 138.143374,54.8196141 138.150111,53.9399535 C138.161902,52.4970409 137.784034,51.3772689 138.488115,49.978115 C138.879458,49.2011189 141.226394,46.7786863 142.262302,47.7750365" id="Fill-24" fill="#2C376A"></path>
                <path d="M68.9362327,58.5204717 C69.2613226,58.193404 69.5914657,57.8697024 69.9440675,57.5706851 C71.1326949,56.5608707 72.5380488,55.7513362 74.0787165,55.5050537 C75.3521255,55.3014078 78.3980884,55.5740576 78.6726462,57.2604477 C78.7243012,57.5768562 78.6131306,57.8949478 78.5042058,58.1967701 C78.3082536,58.7381428 78.1123013,59.2789545 77.9169105,59.8197662 C77.8253913,60.0733419 77.7265729,60.3364546 77.5278133,60.5187822 C77.0808849,60.926635 76.3784887,60.7459905 75.7940007,60.5883472 C74.4363715,60.220887 72.9013185,60.1384188 71.7014618,60.8710953 C69.0777226,62.4738951 69.3534033,66.5771077 69.3281373,69.2009421 C69.2927648,72.9653059 69.5443024,76.7347187 69.2523391,80.4934723 C69.2248272,80.8497124 69.1815942,81.2244658 68.9710437,81.5128239 C68.6369704,81.9711674 68.0036347,82.0665388 67.4393595,82.1198345 C66.6398294,82.1961316 65.7369891,82.2325971 65.1423947,81.6929074 C63.4866261,80.188845 64.527026,75.2906841 64.5275874,73.3024717 C64.5287104,68.0755601 64.5298333,62.8492095 64.5309562,57.6222979 C64.5315177,56.4340829 65.0199947,55.9706903 66.1631432,55.8966373 C68.4078915,55.7524582 68.6684126,56.7016837 68.9362327,58.5204717" id="Fill-26" fill="#323E6F"></path>
                <path d="M161.883805,66.4534615 C160.067457,66.4540225 158.250547,66.4551446 156.434199,66.4562666 C155.89912,66.4562666 155.273083,66.4102639 154.979997,65.9625795 C154.768885,65.6405609 154.813241,65.2186829 154.895777,64.8422465 C155.55494,61.8391707 158.363402,59.4447885 161.435192,59.2652659 C164.877552,59.0649861 168.051529,61.5553006 168.769647,64.8815171 C169.024553,66.065244 168.454663,66.4500955 167.319375,66.4506565 C165.507519,66.4512175 163.695662,66.4523395 161.883805,66.4534615" id="Fill-28" fill="#FCFCFC"></path>
                <path d="M125.652175,69.2596236 C126.287195,76.2340751 121.900447,80.4388301 115.959556,78.8724958 C114.028106,78.3636615 112.813651,77.2685739 112.715395,75.2551162 C112.615453,73.2057539 113.782183,71.9777074 115.686121,71.4397007 C118.897155,70.5331118 122.290105,70.478694 125.652175,69.2596236" id="Fill-30" fill="#F8F8F9"></path>
                <path d="M16.2229389,50.881955 C18.1498964,55.8216305 19.7483953,60.8420911 21.7994372,65.738569 C21.9886519,66.1907415 22.1526005,66.7809219 21.7926996,67.1141607 C21.5911327,67.3015373 21.2924318,67.3290267 21.017874,67.3408079 C17.9539442,67.4776938 14.8422895,67.3150015 11.7710605,67.3436129 C11.4959413,67.345857 11.1865725,67.3346368 10.9990423,67.1332349 C10.7542423,66.8695612 10.8603597,66.4493662 10.9805138,66.1099563 C11.9232183,63.4541444 12.8664842,60.7977715 13.8091887,58.1425206 C14.6300547,55.8306066 15.9135701,53.2881183 16.2229389,50.881955" id="Fill-32" fill="#F1F2F5"></path>
                <path d="M92.018624,66.4518346 C90.1337765,66.4563227 88.2483675,66.4608107 86.3629586,66.4647378 C86.0979458,66.4652988 85.8217036,66.4636158 85.5830798,66.3486091 C84.4000671,65.777503 85.3006615,63.818463 85.736922,63.0251977 C86.9906796,60.7475052 89.5515344,59.2507358 92.1533762,59.2754202 C95.4233648,59.3062756 98.7764506,61.788736 98.9886855,65.1940547 C99.0083368,65.5099022 98.9858781,65.8610932 98.7635369,66.0871794 C98.5636543,66.2897033 98.2582158,66.3345839 97.9746746,66.3631953 C96.0067299,66.5595481 93.9949907,66.4473465 92.018624,66.4518346" id="Fill-34" fill="#FBFBFC"></path>
            </g>
        </g>
    </g>
</svg>