<?xml version="1.0" encoding="UTF-8"?>
<svg width="24px" height="24px" viewBox="0 0 24 24" version="1.1" xmlns="http://www.w3.org/2000/svg" xmlns:xlink="http://www.w3.org/1999/xlink">
    <title>7F03451D-9B67-441E-9B45-5D1440E31E05</title>
    <defs>
        <filter color-interpolation-filters="auto" id="filter-1">
            <feColorMatrix in="SourceGraphic" type="matrix" values="0 0 0 0 1.000000 0 0 0 0 1.000000 0 0 0 0 1.000000 0 0 0 1.000000 0"></feColorMatrix>
        </filter>
    </defs>
    <g id="Aureate-Back-Office" stroke="none" stroke-width="1" fill="none" fill-rule="evenodd">
        <g id="receipt-long-outlined-24px" transform="translate(-28.000000, -376.000000)" filter="url(#filter-1)">
            <g transform="translate(28.000000, 376.000000)">
                <polygon id="Path" points="0 0 24 0 24 24 0 24"></polygon>
                <g id="Group" transform="translate(3.000000, 2.000000)" fill="#000000" fill-rule="nonzero">
                    <path d="M16.5,1.5 L15,0 L13.5,1.5 L12,0 L10.5,1.5 L9,0 L7.5,1.5 L6,0 L4.5,1.5 L3,0 L3,14 L0,14 L0,17 C0,18.66 1.34,20 3,20 L15,20 C16.66,20 18,18.66 18,17 L18,0 L16.5,1.5 Z M12,18 L3,18 C2.45,18 2,17.55 2,17 L2,16 L12,16 L12,18 Z M16,17 C16,17.55 15.55,18 15,18 C14.45,18 14,17.55 14,17 L14,14 L5,14 L5,3 L16,3 L16,17 Z" id="Shape"></path>
                    <rect id="Rectangle" x="6" y="5" width="6" height="2"></rect>
                    <rect id="Rectangle" x="13" y="5" width="2" height="2"></rect>
                    <rect id="Rectangle" x="6" y="8" width="6" height="2"></rect>
                    <rect id="Rectangle" x="13" y="8" width="2" height="2"></rect>
                </g>
            </g>
        </g>
    </g>
</svg>