<?xml version="1.0" encoding="UTF-8"?>
<svg width="20px" height="17px" viewBox="0 0 20 17" version="1.1" xmlns="http://www.w3.org/2000/svg" xmlns:xlink="http://www.w3.org/1999/xlink">
    <title>B947E8EE-93EC-4523-AE38-5224CC022583</title>
    <g id="Customer" stroke="none" stroke-width="1" fill="none" fill-rule="evenodd">
        <g id="901_-Create-Case_USG_Insured-Details" transform="translate(-129.000000, -229.000000)" fill="#FFFFFF" fill-rule="nonzero" stroke="#43A1F6" stroke-width="0.5">
            <g id="Group-9" transform="translate(120.000000, 120.000000)">
                <g id="Group-17-Copy" transform="translate(0.000000, 10.450098)">
                    <path d="M27.732309,100.89968 L23.6691421,99.0712548 L22.8361929,99.0712548 L19.1895006,100.706679 L15.5428084,99.0712548 L15.4920188,99.0712548 L15.3701238,98.9798335 L14.7606487,98.9798335 L10.6974819,100.808259 C10.2814758,100.967661 10.0178812,101.379528 10.0473752,101.82405 L10.0473752,114.216709 C10.0479505,114.56207 10.2239602,114.88348 10.5146394,115.069974 C10.6781347,115.175583 10.8685294,115.231997 11.0631669,115.232501 C11.2068962,115.231835 11.3488479,115.200675 11.4796415,115.14108 L15.1263338,113.505655 L18.773026,115.14108 L18.8238156,115.14108 C19.0555666,115.249431 19.3234347,115.249431 19.5551857,115.14108 L19.6059752,115.14108 L23.2526675,113.505655 L26.8993598,115.14108 C27.0301533,115.200675 27.1721051,115.231835 27.3158344,115.232501 C27.5104718,115.231997 27.7008666,115.175583 27.8643619,115.069974 C28.155041,114.88348 28.3310508,114.56207 28.3316261,114.216709 L28.3316261,101.82405 C28.3307934,101.424946 28.0963272,101.063312 27.732309,100.89968 Z M12.0789586,102.474157 L14.110542,101.570102 L14.110542,111.72802 L12.0789586,112.632074 L12.0789586,102.474157 Z M16.1421255,101.570102 L18.1737089,102.474157 L18.1737089,112.632074 L16.1421255,111.72802 L16.1421255,101.570102 Z M20.2052924,102.474157 L22.2368758,101.570102 L22.2368758,111.72802 L20.2052924,112.632074 L20.2052924,102.474157 Z M26.3000427,112.632074 L24.2684592,111.72802 L24.2684592,101.570102 L26.3000427,102.474157 L26.3000427,112.632074 Z" id="Shape"></path>
                </g>
            </g>
        </g>
    </g>
</svg>