<?xml version="1.0" encoding="UTF-8"?>
<svg width="20px" height="17px" viewBox="0 0 20 17" version="1.1" xmlns="http://www.w3.org/2000/svg" xmlns:xlink="http://www.w3.org/1999/xlink">
    <title>C058AA69-9A49-40B1-9EE9-8BA924734BEF</title>
    <g id="Customer" stroke="none" stroke-width="1" fill="none" fill-rule="evenodd">
        <g id="900_-Create-Case_USG_Case-Details" transform="translate(-129.000000, -229.000000)" fill="#72809D" fill-rule="nonzero" stroke="#EEF4F6" stroke-width="0.5">
            <g id="Group-17" transform="translate(120.000000, 120.000000)">
                <g id="Group-17-Copy" transform="translate(0.000000, 88.366764)">
                    <path d="M27.732309,22.9830132 L23.6691421,21.1545881 L22.8361929,21.1545881 L19.1895006,22.7900128 L15.5428084,21.1545881 L15.4920188,21.1545881 L15.3701238,21.0631669 L14.7606487,21.0631669 L10.6974819,22.891592 C10.2814758,23.0509946 10.0178812,23.4628611 10.0473752,23.9073837 L10.0473752,36.3000427 C10.0479505,36.6454038 10.2239602,36.9668129 10.5146394,37.1533077 C10.6781347,37.2589167 10.8685294,37.31533 11.0631669,37.3158344 C11.2068962,37.3151687 11.3488479,37.2840085 11.4796415,37.2244131 L15.1263338,35.5889885 L18.773026,37.2244131 L18.8238156,37.2244131 C19.0555666,37.3327643 19.3234347,37.3327643 19.5551857,37.2244131 L19.6059752,37.2244131 L23.2526675,35.5889885 L26.8993598,37.2244131 C27.0301533,37.2840085 27.1721051,37.3151687 27.3158344,37.3158344 C27.5104718,37.31533 27.7008666,37.2589167 27.8643619,37.1533077 C28.155041,36.9668129 28.3310508,36.6454038 28.3316261,36.3000427 L28.3316261,23.9073837 C28.3307934,23.5082797 28.0963272,23.1466454 27.732309,22.9830132 Z M12.0789586,24.5574904 L14.110542,23.6534358 L14.110542,33.811353 L12.0789586,34.7154076 L12.0789586,24.5574904 Z M16.1421255,23.6534358 L18.1737089,24.5574904 L18.1737089,34.7154076 L16.1421255,33.811353 L16.1421255,23.6534358 Z M20.2052924,24.5574904 L22.2368758,23.6534358 L22.2368758,33.811353 L20.2052924,34.7154076 L20.2052924,24.5574904 Z M26.3000427,34.7154076 L24.2684592,33.811353 L24.2684592,23.6534358 L26.3000427,24.5574904 L26.3000427,34.7154076 Z" id="Shape"></path>
                </g>
            </g>
        </g>
    </g>
</svg>